# xmcd CD database file
#
# Track frame offsets:
#	150
#	19729
#	41878
#	56270
#	69322
#	91822
#	113124
#	138398
#	159999
#	183103
#	201657
#	228425
#	245258
#	260066
#	275962
#
# Disc length: 3878 seconds
#
# Revision: 0
# Processed by: cddbd v1.5.2PL0 Copyright (c) Steve Scherf et al.
# Submitted via: CDex 1.51
#
DISCID=d40f240f
DTITLE=Various Artist - Jazz 101 CD 6
DYEAR=1900
DGENRE=Jazz
TTITLE0=I Don't Want To Talk About It
TTITLE1=Maria
TTITLE2=Samba Rasgado
TTITLE3=How High The Moon
TTITLE4=Cheek To Cheek
TTITLE5=The Look of Love
TTITLE6=Grace
TTITLE7=Agga
TTITLE8=Hearts of Mine
TTITLE9=So It Better Be
TTITLE10=Wings
TTITLE11=I've Got My Love To Keep Me Warm
TTITLE12=By Myself
TTITLE13=Just Another Little Girl
TTITLE14=Come Fly With Me
EXTD=
EXTT0=
EXTT1=
EXTT2=
EXTT3=
EXTT4=
EXTT5=
EXTT6=
EXTT7=
EXTT8=
EXTT9=
EXTT10=
EXTT11=
EXTT12=
EXTT13=
EXTT14=
PLAYORDER=
